<svg xmlns="http://www.w3.org/2000/svg" width="18" height="19" viewBox="0 0 18 19" fill="none">
  <g clip-path="url(#clip0_728_65)">
    <path d="M12.2099 11.4333C13.8993 11.4035 14.2711 9.07938 12.6769 8.52588L10.8362 10.5222C11.0659 11.063 11.6074 11.4333 12.2099 11.4333Z" fill="white"/>
    <path d="M17.6616 8.41727C17.425 6.99749 16.7598 5.90165 15.727 5.2174C15.2459 5.73955 13.9205 7.17644 13.4203 7.71916C14.2251 8.15535 14.7403 9 14.7403 9.94236C14.7459 12.1265 12.1103 13.2864 10.5042 11.8115C10.351 12.1503 10.1362 12.4621 9.86566 12.7327C8.79321 13.8954 5.47122 14.1765 4.05317 14.1352C4.01174 12.7136 4.29396 9.3932 5.45566 8.32268C6.04841 7.73025 6.8217 7.4264 7.60019 7.41151C8.45212 6.62329 9.63353 5.53005 10.482 4.74484C9.30346 5.0554 7.57722 5.87761 7.05071 5.10134C6.80431 4.51982 7.9245 3.16854 7.04066 2.03452C6.31633 1.12504 4.69523 1.29588 3.77913 1.94201C-0.681278 5.02162 -1.2777 11.7878 2.61618 15.5518C7.38299 20.3553 15.6983 18.1791 17.5251 11.6698C17.6243 11.2601 17.9082 9.91707 17.6616 8.41727Z" fill="white"/>
    <path d="M9.86569 8.32266C10.1553 8.6123 10.3809 8.94871 10.5354 9.31491C11.1254 8.67594 14.2404 5.2963 14.7576 4.73581L17.5234 1.7362C17.8255 1.40845 17.8335 0.923411 17.5418 0.631349C17.2493 0.339287 16.7636 0.347602 16.4359 0.65075L12.391 4.3942C11.5127 5.20674 9.76584 6.824 8.86963 7.65331C9.23202 7.80506 9.5712 8.02817 9.86569 8.32266Z" fill="white"/>
    <path d="M8.57591 8.66053C7.78679 8.27652 6.83051 8.41916 6.19057 9.05688C5.5296 9.64128 5.15432 11.8654 5.11621 13.0716C6.32596 13.0323 8.54466 12.6592 9.13059 11.9972C9.52347 11.6044 9.73966 11.0823 9.73966 10.5272C9.73955 9.97145 9.52312 9.44931 9.13059 9.05723V9.05688C8.96429 8.89023 8.77651 8.75824 8.57591 8.66053Z" fill="white"/>
  </g>
  <defs>
    <clipPath id="clip0_728_65">
      <rect width="17.7335" height="17.7335" fill="white" transform="translate(0.0283203 0.417725)"/>
    </clipPath>
  </defs>
</svg>